<mxfile host="Electron" agent="Mozilla/5.0 (Windows NT 10.0; Win64; x64) AppleWebKit/537.36 (KHTML, like Gecko) draw.io/27.0.2 Chrome/134.0.6998.205 Electron/35.3.0 Safari/537.36" version="27.0.2">
  <diagram name="Страница — 1" id="V2I8i-viEqZShJFHdvwC">
    <mxGraphModel dx="693" dy="473" grid="1" gridSize="10" guides="1" tooltips="1" connect="1" arrows="1" fold="1" page="1" pageScale="1" pageWidth="827" pageHeight="1169" math="0" shadow="0">
      <root>
        <mxCell id="0" />
        <mxCell id="1" parent="0" />
        <mxCell id="_WW_Yg2yuVAMbP-rgPaO-1" value="" style="ellipse;fillColor=strokeColor;html=1;" parent="1" vertex="1">
          <mxGeometry x="310" y="130" width="30" height="30" as="geometry" />
        </mxCell>
        <mxCell id="_WW_Yg2yuVAMbP-rgPaO-2" value="" style="endArrow=classic;html=1;rounded=1;exitX=0.5;exitY=1;exitDx=0;exitDy=0;entryX=0.5;entryY=0;entryDx=0;entryDy=0;curved=0;" parent="1" source="_WW_Yg2yuVAMbP-rgPaO-1" target="_WW_Yg2yuVAMbP-rgPaO-3" edge="1">
          <mxGeometry width="50" height="50" relative="1" as="geometry">
            <mxPoint x="540" y="450" as="sourcePoint" />
            <mxPoint x="590" y="400" as="targetPoint" />
          </mxGeometry>
        </mxCell>
        <mxCell id="_WW_Yg2yuVAMbP-rgPaO-3" value="" style="rhombus;" parent="1" vertex="1">
          <mxGeometry x="310" y="210" width="30" height="30" as="geometry" />
        </mxCell>
        <mxCell id="_WW_Yg2yuVAMbP-rgPaO-5" value="Ввод имени" style="html=1;align=center;verticalAlign=top;rounded=1;absoluteArcSize=1;arcSize=10;dashed=0;whiteSpace=wrap;fillColor=#fff2cc;strokeColor=#d6b656;" parent="1" vertex="1">
          <mxGeometry x="450" y="205" width="140" height="40" as="geometry" />
        </mxCell>
        <mxCell id="_WW_Yg2yuVAMbP-rgPaO-6" value="" style="endArrow=classic;html=1;rounded=1;exitX=1;exitY=0.5;exitDx=0;exitDy=0;entryX=0;entryY=0.5;entryDx=0;entryDy=0;curved=0;" parent="1" source="_WW_Yg2yuVAMbP-rgPaO-3" target="_WW_Yg2yuVAMbP-rgPaO-5" edge="1">
          <mxGeometry width="50" height="50" relative="1" as="geometry">
            <mxPoint x="335" y="170" as="sourcePoint" />
            <mxPoint x="335" y="220" as="targetPoint" />
          </mxGeometry>
        </mxCell>
        <mxCell id="_WW_Yg2yuVAMbP-rgPaO-9" value="[пользователь&lt;div&gt;неизвестен]&lt;/div&gt;" style="edgeLabel;html=1;align=center;verticalAlign=middle;resizable=0;points=[];" parent="_WW_Yg2yuVAMbP-rgPaO-6" vertex="1" connectable="0">
          <mxGeometry x="-0.0688" y="1" relative="1" as="geometry">
            <mxPoint y="-14" as="offset" />
          </mxGeometry>
        </mxCell>
        <mxCell id="_WW_Yg2yuVAMbP-rgPaO-7" value="Выбор&amp;nbsp;группы" style="html=1;align=center;verticalAlign=top;rounded=1;absoluteArcSize=1;arcSize=10;dashed=0;whiteSpace=wrap;fillColor=#fff2cc;strokeColor=#d6b656;" parent="1" vertex="1">
          <mxGeometry x="650" y="205" width="140" height="40" as="geometry" />
        </mxCell>
        <mxCell id="_WW_Yg2yuVAMbP-rgPaO-8" value="" style="endArrow=classic;html=1;rounded=1;exitX=1;exitY=0.5;exitDx=0;exitDy=0;entryX=0;entryY=0.5;entryDx=0;entryDy=0;curved=0;" parent="1" source="_WW_Yg2yuVAMbP-rgPaO-5" target="_WW_Yg2yuVAMbP-rgPaO-7" edge="1">
          <mxGeometry width="50" height="50" relative="1" as="geometry">
            <mxPoint x="410" y="235" as="sourcePoint" />
            <mxPoint x="460" y="235" as="targetPoint" />
          </mxGeometry>
        </mxCell>
        <mxCell id="_WW_Yg2yuVAMbP-rgPaO-10" value="Основное состояние" style="html=1;align=center;verticalAlign=top;rounded=1;absoluteArcSize=1;arcSize=10;dashed=0;whiteSpace=wrap;fillColor=#fff2cc;strokeColor=#d6b656;" parent="1" vertex="1">
          <mxGeometry x="255" y="370" width="140" height="40" as="geometry" />
        </mxCell>
        <mxCell id="_WW_Yg2yuVAMbP-rgPaO-11" value="" style="endArrow=classic;html=1;rounded=1;exitX=0.5;exitY=1;exitDx=0;exitDy=0;entryX=0.5;entryY=0;entryDx=0;entryDy=0;curved=0;" parent="1" source="_WW_Yg2yuVAMbP-rgPaO-13" target="_WW_Yg2yuVAMbP-rgPaO-10" edge="1">
          <mxGeometry width="50" height="50" relative="1" as="geometry">
            <mxPoint x="335" y="170" as="sourcePoint" />
            <mxPoint x="335" y="220" as="targetPoint" />
          </mxGeometry>
        </mxCell>
        <mxCell id="_WW_Yg2yuVAMbP-rgPaO-12" value="" style="endArrow=classic;html=1;rounded=1;exitX=0.5;exitY=1;exitDx=0;exitDy=0;entryX=1;entryY=0.5;entryDx=0;entryDy=0;curved=0;" parent="1" source="_WW_Yg2yuVAMbP-rgPaO-7" target="_WW_Yg2yuVAMbP-rgPaO-13" edge="1">
          <mxGeometry width="50" height="50" relative="1" as="geometry">
            <mxPoint x="600" y="235" as="sourcePoint" />
            <mxPoint x="660" y="235" as="targetPoint" />
            <Array as="points">
              <mxPoint x="720" y="305" />
            </Array>
          </mxGeometry>
        </mxCell>
        <mxCell id="_WW_Yg2yuVAMbP-rgPaO-14" value="" style="endArrow=classic;html=1;rounded=1;exitX=0.5;exitY=1;exitDx=0;exitDy=0;entryX=0.5;entryY=0;entryDx=0;entryDy=0;curved=0;" parent="1" source="_WW_Yg2yuVAMbP-rgPaO-3" target="_WW_Yg2yuVAMbP-rgPaO-13" edge="1">
          <mxGeometry width="50" height="50" relative="1" as="geometry">
            <mxPoint x="325" y="240" as="sourcePoint" />
            <mxPoint x="325" y="380" as="targetPoint" />
          </mxGeometry>
        </mxCell>
        <mxCell id="5ipYqhnxamxgHjICmmCm-2" value="[else]" style="edgeLabel;html=1;align=center;verticalAlign=middle;resizable=0;points=[];" vertex="1" connectable="0" parent="_WW_Yg2yuVAMbP-rgPaO-14">
          <mxGeometry x="-0.0648" y="-1" relative="1" as="geometry">
            <mxPoint x="16" as="offset" />
          </mxGeometry>
        </mxCell>
        <mxCell id="_WW_Yg2yuVAMbP-rgPaO-13" value="" style="rhombus;" parent="1" vertex="1">
          <mxGeometry x="310" y="290" width="30" height="30" as="geometry" />
        </mxCell>
        <mxCell id="_WW_Yg2yuVAMbP-rgPaO-16" value="" style="endArrow=classic;html=1;rounded=1;exitX=1;exitY=0.25;exitDx=0;exitDy=0;curved=0;entryX=0;entryY=0.25;entryDx=0;entryDy=0;" parent="1" source="_WW_Yg2yuVAMbP-rgPaO-10" target="YFFeR7t7FHjp9f5Z9SzQ-9" edge="1">
          <mxGeometry width="50" height="50" relative="1" as="geometry">
            <mxPoint x="335" y="330" as="sourcePoint" />
            <mxPoint x="538.8800000000001" y="380.3399999999999" as="targetPoint" />
          </mxGeometry>
        </mxCell>
        <mxCell id="_WW_Yg2yuVAMbP-rgPaO-18" value="[команда&lt;div&gt;&lt;span style=&quot;background-color: light-dark(#ffffff, var(--ge-dark-color, #121212));&quot;&gt;&lt;b style=&quot;color: light-dark(rgb(0, 0, 0), rgb(255, 255, 255));&quot;&gt;/&lt;/b&gt;&lt;b&gt;assessment&lt;/b&gt;&lt;font color=&quot;rgba(0, 0, 0, 0)&quot;&gt;]&lt;/font&gt;&lt;/span&gt;&lt;/div&gt;" style="edgeLabel;html=1;align=center;verticalAlign=middle;resizable=0;points=[];" parent="_WW_Yg2yuVAMbP-rgPaO-16" vertex="1" connectable="0">
          <mxGeometry x="-0.0882" y="2" relative="1" as="geometry">
            <mxPoint x="2" y="-20" as="offset" />
          </mxGeometry>
        </mxCell>
        <mxCell id="_WW_Yg2yuVAMbP-rgPaO-19" value="Выбор группы" style="html=1;align=center;verticalAlign=top;rounded=1;absoluteArcSize=1;arcSize=10;dashed=0;whiteSpace=wrap;fillColor=#fff2cc;strokeColor=#d6b656;" parent="1" vertex="1">
          <mxGeometry x="40" y="370" width="140" height="40" as="geometry" />
        </mxCell>
        <mxCell id="_WW_Yg2yuVAMbP-rgPaO-20" value="" style="endArrow=classic;html=1;rounded=1;exitX=1;exitY=1;exitDx=0;exitDy=0;curved=0;entryX=0.039;entryY=0.01;entryDx=0;entryDy=0;entryPerimeter=0;" parent="1" source="YFFeR7t7FHjp9f5Z9SzQ-1" target="_WW_Yg2yuVAMbP-rgPaO-10" edge="1">
          <mxGeometry width="50" height="50" relative="1" as="geometry">
            <mxPoint x="520" y="410" as="sourcePoint" />
            <mxPoint x="170" y="470" as="targetPoint" />
          </mxGeometry>
        </mxCell>
        <mxCell id="_WW_Yg2yuVAMbP-rgPaO-22" value="" style="endArrow=classic;html=1;rounded=1;exitX=0;exitY=0.25;exitDx=0;exitDy=0;entryX=1;entryY=0.25;entryDx=0;entryDy=0;curved=0;" parent="1" source="_WW_Yg2yuVAMbP-rgPaO-10" target="_WW_Yg2yuVAMbP-rgPaO-19" edge="1">
          <mxGeometry width="50" height="50" relative="1" as="geometry">
            <mxPoint x="405" y="390" as="sourcePoint" />
            <mxPoint x="520" y="390" as="targetPoint" />
          </mxGeometry>
        </mxCell>
        <mxCell id="_WW_Yg2yuVAMbP-rgPaO-23" value="[команда&lt;div&gt;&lt;span style=&quot;background-color: light-dark(#ffffff, var(--ge-dark-color, #121212)); color: light-dark(rgb(0, 0, 0), rgb(255, 255, 255));&quot;&gt;&lt;b&gt;/group&lt;/b&gt;]&lt;/span&gt;&lt;/div&gt;" style="edgeLabel;html=1;align=center;verticalAlign=middle;resizable=0;points=[];" parent="_WW_Yg2yuVAMbP-rgPaO-22" vertex="1" connectable="0">
          <mxGeometry x="-0.0882" y="2" relative="1" as="geometry">
            <mxPoint x="-12" y="-22" as="offset" />
          </mxGeometry>
        </mxCell>
        <mxCell id="_WW_Yg2yuVAMbP-rgPaO-27" value="" style="endArrow=classic;html=1;rounded=1;curved=0;" parent="1" source="_WW_Yg2yuVAMbP-rgPaO-10" target="YFFeR7t7FHjp9f5Z9SzQ-4" edge="1">
          <mxGeometry width="50" height="50" relative="1" as="geometry">
            <mxPoint x="335" y="330" as="sourcePoint" />
            <mxPoint x="289.7199999999998" y="458.5" as="targetPoint" />
          </mxGeometry>
        </mxCell>
        <mxCell id="_WW_Yg2yuVAMbP-rgPaO-29" value="[команда&lt;div&gt;&lt;span style=&quot;background-color: light-dark(#ffffff, var(--ge-dark-color, #121212)); color: light-dark(rgb(0, 0, 0), rgb(255, 255, 255));&quot;&gt;&lt;b&gt;/dispute&lt;/b&gt;]&lt;/span&gt;&lt;/div&gt;" style="edgeLabel;html=1;align=center;verticalAlign=middle;resizable=0;points=[];" parent="_WW_Yg2yuVAMbP-rgPaO-27" vertex="1" connectable="0">
          <mxGeometry x="-0.1126" y="1" relative="1" as="geometry">
            <mxPoint x="34" y="-2" as="offset" />
          </mxGeometry>
        </mxCell>
        <mxCell id="YFFeR7t7FHjp9f5Z9SzQ-1" value="Ввод имени" style="html=1;align=center;verticalAlign=top;rounded=1;absoluteArcSize=1;arcSize=10;dashed=0;whiteSpace=wrap;fillColor=#fff2cc;strokeColor=#d6b656;" parent="1" vertex="1">
          <mxGeometry x="40" y="250" width="140" height="40" as="geometry" />
        </mxCell>
        <mxCell id="YFFeR7t7FHjp9f5Z9SzQ-2" value="" style="endArrow=classic;html=1;rounded=1;curved=0;entryX=1;entryY=0.25;entryDx=0;entryDy=0;exitX=0.25;exitY=0;exitDx=0;exitDy=0;" parent="1" source="_WW_Yg2yuVAMbP-rgPaO-10" target="YFFeR7t7FHjp9f5Z9SzQ-1" edge="1">
          <mxGeometry width="50" height="50" relative="1" as="geometry">
            <mxPoint x="265" y="390" as="sourcePoint" />
            <mxPoint x="160" y="390" as="targetPoint" />
          </mxGeometry>
        </mxCell>
        <mxCell id="YFFeR7t7FHjp9f5Z9SzQ-3" value="[команда&lt;div&gt;&lt;b&gt;/name&lt;/b&gt;&lt;span style=&quot;background-color: light-dark(#ffffff, var(--ge-dark-color, #121212)); color: light-dark(rgb(0, 0, 0), rgb(255, 255, 255));&quot;&gt;]&lt;/span&gt;&lt;/div&gt;" style="edgeLabel;html=1;align=center;verticalAlign=middle;resizable=0;points=[];" parent="YFFeR7t7FHjp9f5Z9SzQ-2" vertex="1" connectable="0">
          <mxGeometry x="-0.0882" y="2" relative="1" as="geometry">
            <mxPoint x="16" y="-31" as="offset" />
          </mxGeometry>
        </mxCell>
        <mxCell id="YFFeR7t7FHjp9f5Z9SzQ-4" value="Выбор&amp;nbsp;контроля знаний" style="html=1;align=center;verticalAlign=top;rounded=1;absoluteArcSize=1;arcSize=10;dashed=0;whiteSpace=wrap;fillColor=#fff2cc;strokeColor=#d6b656;" parent="1" vertex="1">
          <mxGeometry x="255" y="460" width="140" height="40" as="geometry" />
        </mxCell>
        <mxCell id="YFFeR7t7FHjp9f5Z9SzQ-5" value="Выбор задания" style="html=1;align=center;verticalAlign=top;rounded=1;absoluteArcSize=1;arcSize=10;dashed=0;whiteSpace=wrap;fillColor=#fff2cc;strokeColor=#d6b656;" parent="1" vertex="1">
          <mxGeometry x="40" y="460" width="140" height="40" as="geometry" />
        </mxCell>
        <mxCell id="YFFeR7t7FHjp9f5Z9SzQ-6" value="" style="endArrow=classic;html=1;rounded=1;curved=0;" parent="1" source="YFFeR7t7FHjp9f5Z9SzQ-4" target="YFFeR7t7FHjp9f5Z9SzQ-5" edge="1">
          <mxGeometry width="50" height="50" relative="1" as="geometry">
            <mxPoint x="160" y="300" as="sourcePoint" />
            <mxPoint x="265" y="380" as="targetPoint" />
          </mxGeometry>
        </mxCell>
        <mxCell id="YFFeR7t7FHjp9f5Z9SzQ-8" value="" style="endArrow=classic;html=1;rounded=1;curved=0;" parent="1" source="YFFeR7t7FHjp9f5Z9SzQ-5" target="_WW_Yg2yuVAMbP-rgPaO-10" edge="1">
          <mxGeometry width="50" height="50" relative="1" as="geometry">
            <mxPoint x="265" y="490" as="sourcePoint" />
            <mxPoint x="405" y="490" as="targetPoint" />
          </mxGeometry>
        </mxCell>
        <mxCell id="YFFeR7t7FHjp9f5Z9SzQ-9" value="Выбор&amp;nbsp;предметной области" style="html=1;align=center;verticalAlign=top;rounded=1;absoluteArcSize=1;arcSize=10;dashed=0;whiteSpace=wrap;fillColor=#fff2cc;strokeColor=#d6b656;" parent="1" vertex="1">
          <mxGeometry x="470" y="370" width="140" height="40" as="geometry" />
        </mxCell>
        <mxCell id="YFFeR7t7FHjp9f5Z9SzQ-10" value="Выбор&amp;nbsp;типа оценивания" style="html=1;align=center;verticalAlign=top;rounded=1;absoluteArcSize=1;arcSize=10;dashed=0;whiteSpace=wrap;fillColor=#fff2cc;strokeColor=#d6b656;" parent="1" vertex="1">
          <mxGeometry x="670" y="370" width="140" height="40" as="geometry" />
        </mxCell>
        <mxCell id="YFFeR7t7FHjp9f5Z9SzQ-11" value="" style="endArrow=classic;html=1;rounded=1;exitX=1;exitY=0.5;exitDx=0;exitDy=0;curved=0;" parent="1" source="YFFeR7t7FHjp9f5Z9SzQ-9" target="YFFeR7t7FHjp9f5Z9SzQ-10" edge="1">
          <mxGeometry width="50" height="50" relative="1" as="geometry">
            <mxPoint x="335" y="330" as="sourcePoint" />
            <mxPoint x="335" y="380" as="targetPoint" />
          </mxGeometry>
        </mxCell>
        <mxCell id="YFFeR7t7FHjp9f5Z9SzQ-12" value="" style="rhombus;" parent="1" vertex="1">
          <mxGeometry x="725" y="465" width="30" height="30" as="geometry" />
        </mxCell>
        <mxCell id="YFFeR7t7FHjp9f5Z9SzQ-13" value="" style="endArrow=classic;html=1;rounded=1;exitX=0.5;exitY=1;exitDx=0;exitDy=0;entryX=0.5;entryY=0;entryDx=0;entryDy=0;curved=0;" parent="1" source="YFFeR7t7FHjp9f5Z9SzQ-10" target="YFFeR7t7FHjp9f5Z9SzQ-12" edge="1">
          <mxGeometry width="50" height="50" relative="1" as="geometry">
            <mxPoint x="335" y="250" as="sourcePoint" />
            <mxPoint x="335" y="300" as="targetPoint" />
          </mxGeometry>
        </mxCell>
        <mxCell id="YFFeR7t7FHjp9f5Z9SzQ-14" value="Тест" style="html=1;align=center;verticalAlign=top;rounded=1;absoluteArcSize=1;arcSize=10;dashed=0;whiteSpace=wrap;fillColor=#fff2cc;strokeColor=#d6b656;" parent="1" vertex="1">
          <mxGeometry x="500" y="460" width="140" height="40" as="geometry" />
        </mxCell>
        <mxCell id="YFFeR7t7FHjp9f5Z9SzQ-15" value="Задания со свободным выбором" style="html=1;align=center;verticalAlign=top;rounded=1;absoluteArcSize=1;arcSize=10;dashed=0;whiteSpace=wrap;fillColor=#fff2cc;strokeColor=#d6b656;" parent="1" vertex="1">
          <mxGeometry x="500" y="550" width="140" height="40" as="geometry" />
        </mxCell>
        <mxCell id="YFFeR7t7FHjp9f5Z9SzQ-16" value="" style="endArrow=classic;html=1;rounded=1;exitX=0;exitY=0.5;exitDx=0;exitDy=0;curved=0;" parent="1" source="YFFeR7t7FHjp9f5Z9SzQ-12" target="YFFeR7t7FHjp9f5Z9SzQ-14" edge="1">
          <mxGeometry width="50" height="50" relative="1" as="geometry">
            <mxPoint x="750" y="420" as="sourcePoint" />
            <mxPoint x="750" y="475" as="targetPoint" />
          </mxGeometry>
        </mxCell>
        <mxCell id="YFFeR7t7FHjp9f5Z9SzQ-17" value="[выбран тест]" style="edgeLabel;html=1;align=center;verticalAlign=middle;resizable=0;points=[];" parent="YFFeR7t7FHjp9f5Z9SzQ-16" vertex="1" connectable="0">
          <mxGeometry x="-0.1061" y="-1" relative="1" as="geometry">
            <mxPoint y="-9" as="offset" />
          </mxGeometry>
        </mxCell>
        <mxCell id="YFFeR7t7FHjp9f5Z9SzQ-18" value="" style="endArrow=classic;html=1;rounded=1;exitX=0.5;exitY=1;exitDx=0;exitDy=0;curved=0;" parent="1" source="YFFeR7t7FHjp9f5Z9SzQ-12" target="YFFeR7t7FHjp9f5Z9SzQ-15" edge="1">
          <mxGeometry width="50" height="50" relative="1" as="geometry">
            <mxPoint x="730" y="255" as="sourcePoint" />
            <mxPoint x="350" y="315" as="targetPoint" />
            <Array as="points">
              <mxPoint x="740" y="570" />
            </Array>
          </mxGeometry>
        </mxCell>
        <mxCell id="YFFeR7t7FHjp9f5Z9SzQ-19" value="[else]" style="edgeLabel;html=1;align=center;verticalAlign=middle;resizable=0;points=[];" parent="YFFeR7t7FHjp9f5Z9SzQ-18" vertex="1" connectable="0">
          <mxGeometry x="-0.6663" y="1" relative="1" as="geometry">
            <mxPoint x="14" y="-19" as="offset" />
          </mxGeometry>
        </mxCell>
        <mxCell id="YFFeR7t7FHjp9f5Z9SzQ-20" value="" style="rhombus;" parent="1" vertex="1">
          <mxGeometry x="430" y="465" width="30" height="30" as="geometry" />
        </mxCell>
        <mxCell id="YFFeR7t7FHjp9f5Z9SzQ-21" value="" style="endArrow=classic;html=1;rounded=1;exitX=0;exitY=0.5;exitDx=0;exitDy=0;curved=0;entryX=0.5;entryY=1;entryDx=0;entryDy=0;" parent="1" source="YFFeR7t7FHjp9f5Z9SzQ-15" target="YFFeR7t7FHjp9f5Z9SzQ-20" edge="1">
          <mxGeometry width="50" height="50" relative="1" as="geometry">
            <mxPoint x="750" y="505" as="sourcePoint" />
            <mxPoint x="650" y="580" as="targetPoint" />
            <Array as="points">
              <mxPoint x="445" y="570" />
            </Array>
          </mxGeometry>
        </mxCell>
        <mxCell id="YFFeR7t7FHjp9f5Z9SzQ-23" value="" style="endArrow=classic;html=1;rounded=1;curved=0;entryX=1;entryY=0.5;entryDx=0;entryDy=0;" parent="1" source="YFFeR7t7FHjp9f5Z9SzQ-14" target="YFFeR7t7FHjp9f5Z9SzQ-20" edge="1">
          <mxGeometry width="50" height="50" relative="1" as="geometry">
            <mxPoint x="620" y="400" as="sourcePoint" />
            <mxPoint x="680" y="400" as="targetPoint" />
          </mxGeometry>
        </mxCell>
        <mxCell id="YFFeR7t7FHjp9f5Z9SzQ-25" value="" style="endArrow=classic;html=1;rounded=1;exitX=0.5;exitY=0;exitDx=0;exitDy=0;curved=0;entryX=1;entryY=0.75;entryDx=0;entryDy=0;" parent="1" source="YFFeR7t7FHjp9f5Z9SzQ-20" target="_WW_Yg2yuVAMbP-rgPaO-10" edge="1">
          <mxGeometry width="50" height="50" relative="1" as="geometry">
            <mxPoint x="510" y="580" as="sourcePoint" />
            <mxPoint x="455" y="505" as="targetPoint" />
            <Array as="points">
              <mxPoint x="445" y="400" />
            </Array>
          </mxGeometry>
        </mxCell>
        <mxCell id="y1y5z2Mb0azQxQwbGpAF-1" value="" style="endArrow=classic;html=1;rounded=1;exitX=1;exitY=0.75;exitDx=0;exitDy=0;curved=0;entryX=0;entryY=0.75;entryDx=0;entryDy=0;" parent="1" source="_WW_Yg2yuVAMbP-rgPaO-19" target="_WW_Yg2yuVAMbP-rgPaO-10" edge="1">
          <mxGeometry width="50" height="50" relative="1" as="geometry">
            <mxPoint x="190" y="300" as="sourcePoint" />
            <mxPoint x="270" y="380" as="targetPoint" />
          </mxGeometry>
        </mxCell>
      </root>
    </mxGraphModel>
  </diagram>
</mxfile>
